<?xml version="1.0" encoding="iso-8859-1"?>
<!-- Generator: Adobe Illustrator 19.0.0, SVG Export Plug-In . SVG Version: 6.00 Build 0)  -->
<svg version="1.1" id="Capa_1" xmlns="http://www.w3.org/2000/svg" xmlns:xlink="http://www.w3.org/1999/xlink" x="0px" y="0px"
	 viewBox="0 0 511.945 511.945" style="enable-background:new 0 0 511.945 511.945;" xml:space="preserve">
<g>
	<g>
		<circle style="fill:#FFE17D;" cx="255.944" cy="255.972" r="248.5"/>
		<path style="fill:#FFD164;" d="M292.016,468.4c-137.243,0-248.5-111.258-248.5-248.5c0-59.433,20.891-113.971,55.695-156.733
			C43.227,108.732,7.444,178.162,7.444,255.972c0,137.242,111.257,248.5,248.5,248.5c77.81,0,147.242-35.784,192.806-91.769
			C405.988,447.508,351.45,468.4,292.016,468.4z"/>
		<path style="fill:#FFFFFF;" d="M143.718,288.037v93.949c0,11.06,7.55,20.682,18.27,23.404c61.655,15.66,126.257,15.66,187.912,0
			c10.72-2.723,18.27-12.344,18.27-23.404v-93.949c0-8.854-7.178-16.032-16.032-16.032H159.75
			C150.896,272.005,143.718,279.182,143.718,288.037z"/>
	</g>
	<g>
		<path d="M448.252,87.041c-2.736-3.109-7.476-3.411-10.585-0.675c-3.109,2.737-3.412,7.476-0.675,10.585
			c37.573,42.689,58.572,96.739,59.875,153.403L375.58,286.027c-1.01-12.051-11.135-21.551-23.443-21.551H159.751
			c-12.308,0-22.433,9.5-23.443,21.551l-121.23-35.656c0.013-0.562,0.014-1.123,0.03-1.685
			C16.942,187.09,41.962,129.157,85.56,85.56c43.598-43.598,101.531-68.618,163.126-70.451
			c61.332-1.833,120.388,19.428,166.308,59.844c3.108,2.737,7.849,2.436,10.585-0.675c2.737-3.109,2.435-7.848-0.675-10.585
			C376.12,20.755,313.387-1.817,248.24,0.115C182.807,2.063,121.266,28.641,74.953,74.953
			C28.641,121.265,2.063,182.807,0.115,248.24c-1.939,65.139,20.64,127.88,63.578,176.664c1.482,1.685,3.552,2.545,5.633,2.545
			c1.76,0,3.527-0.616,4.952-1.87c3.109-2.737,3.412-7.476,0.675-10.585c-12.825-14.571-23.713-30.47-32.553-47.34h93.819v14.303
			c0,14.482,9.837,27.096,23.923,30.673c31.337,7.959,63.57,11.939,95.802,11.939s64.465-3.98,95.802-11.939
			c14.086-3.578,23.923-16.191,23.923-30.673v-14.303h93.924c-11.215,21.425-25.711,41.235-43.208,58.732
			c-43.598,43.598-101.53,68.618-163.126,70.451c-61.323,1.813-120.388-19.428-166.308-59.845
			c-3.109-2.738-7.849-2.436-10.585,0.675c-2.737,3.109-2.435,7.848,0.675,10.585c46.849,41.234,106.568,63.693,168.923,63.693
			c2.576,0,5.156-0.038,7.741-0.115c65.433-1.948,126.975-28.525,173.287-74.838c46.313-46.313,72.891-107.854,74.838-173.287
			C513.769,198.566,491.189,135.825,448.252,87.041z M35.19,352.653c-11.914-27.18-18.736-56.489-19.981-86.608l121.009,35.591
			v51.018H35.19z M360.669,381.957c0,7.613-5.188,14.249-12.616,16.135c-60.259,15.305-123.961,15.305-184.22,0
			c-7.428-1.887-12.616-8.522-12.616-16.135v-93.949c0-4.705,3.828-8.532,8.532-8.532h192.387c4.705,0,8.532,3.828,8.532,8.532
			V381.957z M375.669,352.653v-51.018l121.052-35.603c-1.244,30.22-8.065,59.515-19.931,86.621H375.669z"/>
		<path d="M192.978,188.769c-12.079,27.176-56.834,27.609-57.285,27.61c-4.138,0.005-7.49,3.361-7.49,7.5c0,4.142,3.358,7.5,7.5,7.5
			c2.236,0,54.937-0.415,70.982-36.519c1.682-3.785-0.022-8.217-3.808-9.899C199.09,183.279,194.66,184.984,192.978,188.769z"/>
		<path d="M318.91,188.769c-1.682-3.785-6.113-5.49-9.899-3.808c-3.785,1.682-5.49,6.114-3.808,9.899
			c16.046,36.104,68.747,36.519,70.982,36.519c4.138,0,7.489-3.352,7.495-7.49c0.005-4.138-3.347-7.499-7.485-7.51
			C375.745,216.378,330.989,215.944,318.91,188.769z"/>
	</g>
</g>
<g>
</g>
<g>
</g>
<g>
</g>
<g>
</g>
<g>
</g>
<g>
</g>
<g>
</g>
<g>
</g>
<g>
</g>
<g>
</g>
<g>
</g>
<g>
</g>
<g>
</g>
<g>
</g>
<g>
</g>
</svg>
